<svg width="26" height="26" viewBox="0 0 26 26" fill="none" xmlns="http://www.w3.org/2000/svg">
<path d="M18.254 0H7.74465C5.69116 0.00241321 3.72248 0.819319 2.27056 2.27148C0.818643 3.72364 0.00206794 5.69246 0 7.74596V18.2553C0.00241321 20.3088 0.819319 22.2775 2.27148 23.7294C3.72364 25.1814 5.69246 25.9979 7.74596 26H18.2553C20.3088 25.9976 22.2775 25.1807 23.7294 23.7285C25.1814 22.2764 25.9979 20.3075 26 18.254V7.74465C25.9976 5.69116 25.1807 3.72248 23.7285 2.27056C22.2764 0.818643 20.3075 0.00206794 18.254 0ZM23.385 18.254C23.385 18.9279 23.2523 19.5951 22.9945 20.2176C22.7366 20.8401 22.3587 21.4057 21.8822 21.8822C21.4057 22.3587 20.8401 22.7366 20.2176 22.9945C19.5951 23.2523 18.9279 23.385 18.254 23.385H7.74465C6.38406 23.3847 5.07931 22.8439 4.11734 21.8817C3.15538 20.9195 2.61498 19.6146 2.61498 18.254V7.74465C2.61532 6.38406 3.15606 5.07931 4.11827 4.11734C5.08047 3.15538 6.38536 2.61498 7.74596 2.61498H18.2553C19.6159 2.61532 20.9207 3.15606 21.8827 4.11827C22.8446 5.08047 23.385 6.38536 23.385 7.74596V18.254Z" fill="#EDE2C6"/>
<path d="M12.9997 6.27564C11.2174 6.2784 9.50899 6.98771 8.24886 8.24808C6.98873 9.50845 6.27975 11.217 6.27734 12.9993C6.27941 14.782 6.98842 16.4911 8.24886 17.7518C9.50931 19.0125 11.2183 19.7219 13.001 19.7243C14.7839 19.7222 16.4933 19.013 17.754 17.7523C19.0147 16.4916 19.7239 14.7822 19.726 12.9993C19.7232 11.2166 19.0136 9.50775 17.7526 8.24755C16.4917 6.98734 14.7824 6.27867 12.9997 6.27695V6.27564ZM12.9997 17.1093C11.91 17.1093 10.865 16.6764 10.0944 15.9059C9.3239 15.1354 8.89102 14.0903 8.89102 13.0006C8.89102 11.9109 9.3239 10.8659 10.0944 10.0953C10.865 9.3248 11.91 8.89192 12.9997 8.89192C14.0894 8.89192 15.1345 9.3248 15.905 10.0953C16.6755 10.8659 17.1084 11.9109 17.1084 13.0006C17.1084 14.0903 16.6755 15.1354 15.905 15.9059C15.1345 16.6764 14.0894 17.1093 12.9997 17.1093Z" fill="#EDE2C6"/>
<path d="M19.7369 7.93735C20.6266 7.93735 21.3478 7.21612 21.3478 6.32643C21.3478 5.43675 20.6266 4.71552 19.7369 4.71552C18.8472 4.71552 18.126 5.43675 18.126 6.32643C18.126 7.21612 18.8472 7.93735 19.7369 7.93735Z" fill="#EDE2C6"/>
</svg>
