<svg width="32" height="33" viewBox="0 0 32 33" fill="none" xmlns="http://www.w3.org/2000/svg">
<path d="M31.8169 0.393978C31.6997 0.276961 31.5407 0.211182 31.3749 0.211182L15.9998 0.211993C15.6547 0.211993 15.3749 0.491462 15.3749 0.836086V2.6208L9.45043 4.20594C9.11698 4.29518 8.9191 4.63737 9.00848 4.97026L12.079 16.4125L9.42274 19.0648C9.08467 18.5719 8.51703 18.2478 7.87495 18.2478H1.87499C0.841084 18.2478 0 19.0877 0 20.12V30.2925C0 31.3248 0.841084 32.1647 1.87499 32.1647H7.87501C8.75335 32.1647 9.49224 31.5584 9.69475 30.743L10.4379 31.3902C11.0116 31.8897 11.7466 32.1648 12.5078 32.1648H31.375C31.7201 32.1648 32 31.8853 32 31.5407V0.835274C31.9999 0.669765 31.9341 0.510996 31.8169 0.393978ZM8.4999 30.2925C8.4999 30.6366 8.21952 30.9166 7.87489 30.9166H1.87492C1.53029 30.9166 1.24991 30.6366 1.24991 30.2925V20.1201C1.24991 19.7759 1.53029 19.496 1.87492 19.496H4.24992V26.6852C4.24992 27.0298 4.5298 27.3093 4.87494 27.3093C5.22007 27.3093 5.49995 27.0298 5.49995 26.6852V19.496H7.87495C8.21958 19.496 8.49997 19.7759 8.49997 20.1201V30.2925H8.4999ZM10.3776 5.25004L15.3749 3.91299V6.22556L14.956 6.33765C14.7958 6.38053 14.6594 6.48506 14.5765 6.62842C14.4936 6.77177 14.4711 6.94209 14.5141 7.10198C14.7542 7.99699 14.2204 8.92021 13.3241 9.16005C13.1638 9.20299 13.0271 9.30771 12.9443 9.45138C12.8615 9.59498 12.8391 9.76561 12.8825 9.92562L15.3187 18.9337H14.0643L13.4178 16.4083C13.3973 16.3279 13.3613 16.2539 13.3131 16.1895L10.3776 5.25004ZM15.3749 9.08759V14.3537L14.2349 10.1389C14.7111 9.89342 15.1008 9.52608 15.3749 9.08759ZM24.3541 30.9165H12.5077C12.0486 30.9165 11.6053 30.7507 11.2593 30.4494L9.74994 29.135V20.5034L12.4786 17.7787L12.9735 19.7121C13.0443 19.9884 13.2935 20.1817 13.579 20.1817L25.8671 20.1824C26.3496 20.1824 26.7421 20.5743 26.7421 21.0561C26.7421 21.5379 26.3496 21.9299 25.8671 21.9299H19.5707C19.2256 21.9299 18.9457 22.2093 18.9457 22.554C18.9457 22.8986 19.2256 23.178 19.5707 23.178H27.8234C28.3059 23.178 28.6984 23.57 28.6984 24.0518C28.6984 24.5336 28.3059 24.9255 27.8234 24.9255H19.5707C19.2256 24.9255 18.9457 25.205 18.9457 25.5496C18.9457 25.8942 19.2256 26.1737 19.5707 26.1737H26.486C26.9686 26.1737 27.3611 26.5656 27.3611 27.0474C27.3611 27.5292 26.9686 27.9212 26.486 27.9212H19.5707C19.2256 27.9212 18.9457 28.2006 18.9457 28.5452C18.9457 28.8899 19.2256 29.1693 19.5707 29.1693H24.3541C24.8366 29.1693 25.2291 29.5613 25.2291 30.0431C25.2291 30.5246 24.8366 30.9165 24.3541 30.9165ZM30.75 30.9165H30.7499H26.2899C26.411 30.6499 26.4791 30.3542 26.4791 30.0428C26.4791 29.7314 26.411 29.4358 26.2899 29.1691H26.486C27.6578 29.1691 28.611 28.2172 28.611 27.0472C28.611 26.706 28.5295 26.3835 28.3855 26.0976C29.2852 25.8508 29.9483 25.0273 29.9483 24.0517C29.9483 23.5783 29.7922 23.1408 29.5289 22.7876V14.8778C29.5289 14.5332 29.249 14.2537 28.9039 14.2537C28.5587 14.2537 28.2788 14.5332 28.2788 14.8778V21.9795C28.132 21.9473 27.9796 21.9299 27.8233 21.9299H27.8028C27.924 21.6632 27.992 21.3676 27.992 21.0561C27.992 19.8861 27.0387 18.9343 25.867 18.9343H24.8623C25.9292 18.4774 26.6784 17.4186 26.6784 16.188C26.6784 14.541 25.3366 13.2012 23.6873 13.2012C22.038 13.2012 20.6962 14.541 20.6962 16.188C20.6962 17.4186 21.4455 18.4774 22.5123 18.9343H19.0957V7.06765C20.2123 6.82469 21.0933 5.94503 21.3365 4.83009H26.038C26.2812 5.94503 27.1623 6.82469 28.2788 7.06765V9.00796C28.2788 9.35258 28.5587 9.63205 28.9038 9.63205C29.2489 9.63205 29.5288 9.35258 29.5288 9.00796V6.51046C29.5288 6.16584 29.2489 5.88637 28.9038 5.88637C27.9758 5.88637 27.221 5.13253 27.221 4.206C27.221 3.86138 26.9411 3.58191 26.596 3.58191H20.7786C20.4335 3.58191 20.1536 3.86138 20.1536 4.206C20.1536 5.13259 19.3987 5.88637 18.4708 5.88637C18.1256 5.88637 17.8458 6.16584 17.8458 6.51046V18.9342H16.625V1.46005L30.75 1.45937V30.9165ZM23.6874 17.9266C22.7273 17.9266 21.9463 17.1466 21.9463 16.188C21.9463 15.2294 22.7274 14.4494 23.6874 14.4494C24.6474 14.4494 25.4285 15.2294 25.4285 16.188C25.4285 17.1466 24.6475 17.9266 23.6874 17.9266Z" fill="white"/>
</svg>
