<svg width="36" height="36" viewBox="0 0 36 36" fill="none" xmlns="http://www.w3.org/2000/svg">
<g clip-path="url(#clip0)">
<path d="M31.0083 29.5219C31.3965 29.5219 31.7116 29.2068 31.7116 28.8186C31.7116 28.4301 31.3965 28.115 31.0083 28.115C30.6198 28.115 30.3047 28.4301 30.3047 28.8186C30.3047 29.2068 30.6198 29.5219 31.0083 29.5219Z" fill="white"/>
<path d="M0.0975712 14.0753C0.259894 14.874 0.535377 15.6254 0.916603 16.3088C2.15751 18.5343 2.73979 20.8519 2.73979 22.9517V31.6312C2.73979 32.0193 3.05455 32.3343 3.44291 32.3343H6.25569C6.64379 32.3343 6.95882 32.0193 6.95882 31.6312V23.7864C6.95882 22.2013 7.32412 20.6105 8.01598 19.1836L8.08025 19.0801C11.4097 21.8514 14.075 25.3838 15.8149 29.3397C16.6147 31.1588 18.389 32.3343 20.3347 32.3343H26.0852C28.8618 32.3343 31.0439 32.2769 32.6685 31.9973C33.4752 31.8583 35.9298 31.4362 35.9298 29.5215C35.9298 28.4388 35.0328 26.8667 33.6444 25.5164C32.7122 24.6092 30.7489 23.0291 28.0784 22.6364C27.8708 22.6059 27.6607 22.6696 27.5049 22.81C26.8079 23.4392 25.4417 23.896 24.2571 23.896C22.5732 23.896 20.7901 22.9347 20.1098 21.66C20.0963 21.635 20.0815 21.6108 20.0653 21.5875L15.3713 14.8904C12.4663 10.7461 8.99816 7.03081 5.06367 3.84807C4.80714 3.64043 4.44102 3.63905 4.18312 3.84477C3.08558 4.71956 2.16987 5.76601 1.46125 6.95501C0.0945499 9.24923 -0.345453 11.8654 0.0931767 14.0541C0.09455 14.0613 0.0959232 14.0684 0.0975712 14.0753ZM5.55229 23.7864V30.9278H4.14604V22.9517C4.14604 22.7402 4.13917 22.5122 4.12599 22.2749C3.91203 18.4204 2.23689 15.8754 1.92213 15.1824C3.70521 16.0094 5.39656 17.021 6.97008 18.2023C6.21092 19.4311 5.55229 21.5869 5.55229 23.7864ZM2.66948 7.67489C3.19572 6.79186 3.85298 5.99782 4.62779 5.30843C8.27608 8.32611 11.5009 11.8189 14.22 15.6977L18.8903 22.3614C19.8252 24.0682 22.0736 25.3025 24.2571 25.3025C25.6419 25.3025 27.1932 24.8095 28.1732 24.0783C30.3018 24.4835 31.8893 25.7708 32.6639 26.5244C33.8847 27.7121 34.5233 28.931 34.5233 29.5215C34.5233 30.1244 33.3851 30.4468 32.4298 30.6114C30.9036 30.8739 28.7895 30.9278 26.0852 30.9278H20.3347C18.9466 30.9278 17.6777 30.0824 17.1022 28.7736C14.0574 21.8508 8.42989 16.3357 1.41044 13.4218C1.15528 11.6915 1.5398 9.57141 2.66948 7.67489Z" fill="white"/>
<path d="M20.3186 29.5215H28.1942C28.5826 29.5215 28.8973 29.2065 28.8973 28.8184C28.8973 28.43 28.5826 28.115 28.1942 28.115H20.3186C19.9303 28.115 19.6152 28.43 19.6152 28.8184C19.6152 29.2065 19.9303 29.5215 20.3186 29.5215Z" fill="white"/>
</g>
<defs>
<clipPath id="clip0">
<rect width="36" height="35.9298" fill="white"/>
</clipPath>
</defs>
</svg>
