<svg width="36" height="36" viewBox="0 0 36 36" fill="none" xmlns="http://www.w3.org/2000/svg">
<path d="M2.79725 14.1829C2.14539 13.5475 1.91525 12.615 2.1965 11.7492C2.47782 10.8834 3.21217 10.2643 4.11301 10.1335L11.9901 8.98887C12.1447 8.96644 12.2784 8.86934 12.3476 8.72914L15.8703 1.59137C16.2731 0.775038 17.0889 0.267944 17.9992 0.267944C18.9096 0.267944 19.7253 0.775038 20.1282 1.59137L23.6509 8.72921C23.7201 8.86934 23.8537 8.96644 24.0084 8.98895L31.8854 10.1335C32.7862 10.2643 33.5205 10.8834 33.8019 11.7492C34.0833 12.615 33.8531 13.5475 33.2012 14.1829L27.5013 19.739C27.3894 19.8481 27.3383 20.0052 27.3647 20.1593L28.7103 28.0045C28.8641 28.9017 28.5023 29.7914 27.7659 30.3265C27.0294 30.8617 26.0712 30.9308 25.2655 30.5073L18.2202 26.8033C18.0818 26.7305 17.9166 26.7305 17.7782 26.8033L10.7327 30.5073C10.3823 30.6915 10.0031 30.7826 9.62572 30.7825C9.13564 30.7825 8.64866 30.629 8.23262 30.3264C7.49617 29.7913 7.13427 28.9015 7.28818 28.0044L8.63375 20.1592C8.66012 20.0052 8.60907 19.848 8.49721 19.7389L2.79725 14.1829ZM10.5055 20.4804L9.15997 28.3257C9.11497 28.5883 9.27704 28.738 9.34883 28.7901C9.42069 28.8421 9.61321 28.9502 9.84889 28.8261L16.8943 25.1221C17.2402 24.9404 17.6196 24.8494 17.9991 24.8494C18.3786 24.8494 18.758 24.9404 19.1038 25.1221L26.1492 28.826C26.3851 28.95 26.5775 28.842 26.6493 28.7899C26.7211 28.7378 26.8832 28.5881 26.8382 28.3256L25.4926 20.4804C25.3605 19.7101 25.6156 18.9246 26.1754 18.379L31.8753 12.823C32.066 12.637 32.0229 12.4206 31.9954 12.3362C31.968 12.2518 31.8757 12.0513 31.6121 12.0131L23.7352 10.8685C22.9618 10.7561 22.2935 10.2707 21.9476 9.56973L18.4248 2.43188C18.3069 2.19303 18.0878 2.16723 17.999 2.16723C17.9104 2.16723 17.6913 2.19296 17.5733 2.43188V2.43195L14.0506 9.5698C13.7047 10.2707 13.0364 10.7562 12.2631 10.8685L4.38603 12.0132C4.12243 12.0514 4.03018 12.2519 4.00276 12.3363C3.97534 12.4208 3.9321 12.6372 4.12292 12.8231L9.82281 18.3791C10.3825 18.9246 10.6377 19.7101 10.5055 20.4804Z" fill="white"/>
<path d="M6.90593 1.59083C7.33034 1.28258 7.92413 1.37666 8.23238 1.80093L9.24045 3.18833C9.5487 3.6126 9.45469 4.20653 9.03035 4.51478C8.86167 4.63719 8.66641 4.69618 8.47291 4.69618C8.17922 4.69618 7.88967 4.56041 7.70391 4.30475L6.69584 2.91735C6.38759 2.49301 6.4816 1.89908 6.90593 1.59083Z" fill="white"/>
<path d="M26.7642 3.18274L27.7723 1.79533C28.0805 1.37121 28.6743 1.27713 29.0987 1.58524C29.523 1.89349 29.6171 2.48742 29.3088 2.91168L28.3008 4.29909C28.1149 4.55496 27.8254 4.69066 27.5316 4.69066C27.338 4.69066 27.1427 4.63167 26.9742 4.50918C26.55 4.201 26.4559 3.60707 26.7642 3.18274Z" fill="white"/>
<path d="M32.5159 21.5739C32.678 21.0752 33.2137 20.8021 33.7125 20.9642L35.3436 21.4942C35.8424 21.6563 36.1153 22.1921 35.9533 22.6909C35.8229 23.0923 35.4506 23.3474 35.0503 23.3474C34.9531 23.3474 34.8541 23.3323 34.7566 23.3006L33.1256 22.7705C32.6268 22.6085 32.3538 22.0728 32.5159 21.5739Z" fill="white"/>
<path d="M17.9996 32.1178C18.524 32.1178 18.9492 32.543 18.9492 33.0674V34.7825C18.9492 35.307 18.524 35.7321 17.9996 35.7321C17.4751 35.7321 17.0499 35.307 17.0499 34.7825V33.0674C17.0499 32.5429 17.475 32.1178 17.9996 32.1178Z" fill="white"/>
<path d="M0.656819 21.4956L2.28786 20.9656C2.78651 20.8037 3.32244 21.0765 3.48451 21.5754C3.64658 22.0742 3.37369 22.61 2.87483 22.772L1.24379 23.302C1.14626 23.3337 1.0474 23.3487 0.950162 23.3487C0.549803 23.3487 0.177499 23.0936 0.0471396 22.6922C-0.114931 22.1934 0.158022 21.6577 0.656819 21.4956Z" fill="white"/>
</svg>
