<svg width="26" height="26" viewBox="0 0 26 26" fill="none" xmlns="http://www.w3.org/2000/svg">
<path d="M10.8866 18.1327L11.0838 15.1541L16.4918 10.2812C16.7312 10.0629 16.4425 9.95732 16.1256 10.1474L9.45011 14.3654L6.56303 13.45C5.94336 13.2739 5.93632 12.8444 6.70386 12.5346L17.9494 8.1969C18.4634 7.96453 18.9564 8.32365 18.7592 9.11232L16.8439 18.1327C16.7101 18.7735 16.3228 18.9284 15.7876 18.6327L12.8724 16.4779L11.4711 17.8369C11.3091 17.9989 11.1753 18.1327 10.8866 18.1327Z" fill="#EDE2C6"/>
<path d="M13 23.4C15.7583 23.4 18.4035 22.3043 20.3539 20.3539C22.3043 18.4035 23.4 15.7583 23.4 13C23.4 10.2417 22.3043 7.59647 20.3539 5.64609C18.4035 3.69571 15.7583 2.6 13 2.6C10.2417 2.6 7.59647 3.69571 5.64609 5.64609C3.69571 7.59647 2.6 10.2417 2.6 13C2.6 15.7583 3.69571 18.4035 5.64609 20.3539C7.59647 22.3043 10.2417 23.4 13 23.4ZM13 26C5.8201 26 0 20.1799 0 13C0 5.8201 5.8201 0 13 0C20.1799 0 26 5.8201 26 13C26 20.1799 20.1799 26 13 26Z" fill="#EDE2C6"/>
</svg>
