<svg width="27" height="26" viewBox="0 0 27 26" fill="none" xmlns="http://www.w3.org/2000/svg">
<path d="M13.6645 0C11.6082 0 6.52147 0.207171 3.81577 2.69323C1.86767 4.45418 1.11007 7.14741 1.00184 10.3586C0.785386 15.4343 1.97589 18.6454 3.924 20.3028C4.35691 20.6135 5.43919 21.4422 7.49552 22.0637V24.6534C7.49552 24.6534 7.49552 25.6892 8.14489 25.8964C8.25312 25.8964 8.36135 26 8.46957 26C9.11894 26 9.66008 25.2749 10.4177 24.5498C11.067 23.8247 11.6082 23.3068 11.9329 22.7888H14.3139C16.3702 22.7888 21.4569 22.5817 24.1626 20.0956C26.1107 18.2311 26.8683 15.5378 26.8683 12.1195C26.9766 11.6016 26.9766 10.9801 26.9766 10.3586C26.8683 6.5259 25.6778 3.93626 24.0544 2.48606C23.405 1.96813 20.5911 0 14.5303 0H13.6645V0ZM13.4481 1.96813H14.4221C20.1582 1.96813 22.3228 3.72908 22.5392 3.93626C23.838 4.97211 24.5955 7.251 24.7038 10.255V10.6693C24.812 11.2908 24.812 11.8088 24.812 12.1195C24.7038 15.2271 24.0544 17.2988 22.7557 18.6454C20.4829 20.6135 15.7208 20.7171 14.4221 20.7171H12.3658L10.6341 22.5817L9.55185 23.7211L9.3354 24.0319C9.11894 24.239 8.79426 24.6534 8.5778 24.757V20.0956C6.41324 19.5777 5.54742 18.8526 5.33096 18.6454C3.81577 17.4024 2.94995 14.3984 3.1664 10.3586V9.32271C3.38286 6.83665 4.03223 5.17928 5.11451 4.03984C7.38729 2.07171 12.1493 1.96813 13.4481 1.96813V1.96813ZM13.3398 4.24701C12.7987 4.24701 12.7987 4.97211 13.3398 4.97211C17.3443 4.97211 20.8076 7.56175 20.8076 12.4303C20.8076 12.9482 21.5652 12.9482 21.5652 12.4303C21.5652 7.14741 17.8854 4.14343 13.3398 4.24701V4.24701ZM9.05076 5.20518C8.80554 5.17705 8.55854 5.24173 8.36243 5.38542C7.28015 5.90335 6.19679 6.94127 6.52147 8.08072C6.52147 8.08072 6.73793 9.01195 7.92843 10.9801C8.5778 11.9124 9.11894 12.741 9.66008 13.3625C10.2012 14.0876 11.067 14.9163 11.9329 15.5378C13.6645 16.8845 16.3702 18.2311 17.5607 18.5418C18.643 18.8526 19.8335 17.8167 20.3747 16.7809C20.5911 16.3665 20.4829 15.8486 20.05 15.5378C19.4006 14.9163 18.3183 14.1912 17.5607 13.7769C17.0196 13.4661 16.3702 13.6733 16.1538 13.9841L15.6126 14.6056C15.3962 14.9163 14.855 14.9163 14.855 14.9163C11.2835 13.9841 10.3095 10.4622 10.3095 10.4622C10.3095 10.4622 10.3094 10.0478 10.6341 9.73705L11.2835 9.21912C11.6082 9.01195 11.8246 8.39044 11.5 7.87251C11.2835 7.56175 10.9588 6.94024 10.6341 6.62948C10.3094 6.21514 9.66008 5.49004 9.66008 5.49004C9.49588 5.33267 9.28139 5.23239 9.05076 5.20518V5.20518ZM14.0974 6.31873C13.5563 6.21514 13.4481 7.04383 13.9892 7.04383C17.0196 7.251 18.7512 9.21912 18.643 11.7052C18.5348 12.2231 19.4006 12.2231 19.4006 11.7052C19.5088 8.80478 17.5607 6.42231 14.0974 6.31873V6.31873ZM14.4221 8.28685C13.881 8.18327 13.881 9.01195 14.4221 9.01195C15.7208 9.01195 16.3702 9.73705 16.3702 10.9801C16.4784 11.498 17.236 11.498 17.236 10.9801C17.1278 9.32271 16.1538 8.28685 14.4221 8.28685Z" fill="#EDE2C6"/>
</svg>
